<?xml version="1.0" encoding="iso-8859-1"?>
<!-- Generator: Adobe Illustrator 17.1.0, SVG Export Plug-In . SVG Version: 6.00 Build 0)  -->
<!DOCTYPE svg PUBLIC "-//W3C//DTD SVG 1.1//EN" "http://www.w3.org/Graphics/SVG/1.1/DTD/svg11.dtd">
<svg version="1.1" id="&#x30EC;&#x30A4;&#x30E4;&#x30FC;_1"
	 xmlns="http://www.w3.org/2000/svg" xmlns:xlink="http://www.w3.org/1999/xlink" x="0px" y="0px" viewBox="0 0 1024 1024"
	 style="enable-background:new 0 0 1024 1024;" xml:space="preserve">
<g>
	<polygon style="fill:#202020;stroke:#E64437;stroke-width:46;stroke-miterlimit:10;" points="947,754.75 512,997.5 77,754.75 
		77,269.25 512,26.5 947,269.25 	"/>
	<g>
		<path style="fill:#E64437;" d="M504.364,733.747H238.478V287.294h63.997v394.532h201.889V733.747z"/>
		<path style="fill:#64B368;" d="M659.299,439.983H554.288v-49.188h167.24v293.422h105.717v49.531H542.62v-49.531h116.679V439.983z
			 M680.868,246.986c6.833,0,13.197,1.195,19.091,3.587c5.89,2.39,11.016,5.753,15.381,10.076
			c4.359,4.329,7.779,9.281,10.254,14.859c2.474,5.583,3.712,11.673,3.712,18.275c0,6.378-1.238,12.414-3.712,18.104
			c-2.476,5.695-5.896,10.707-10.254,15.03c-4.364,4.329-9.491,7.686-15.381,10.076c-5.894,2.392-12.259,3.587-19.091,3.587
			c-6.84,0-13.204-1.195-19.094-3.587c-5.894-2.39-11.021-5.748-15.379-10.076c-4.364-4.323-7.779-9.335-10.254-15.03
			c-2.474-5.69-3.712-11.726-3.712-18.104c0-6.602,1.238-12.692,3.712-18.275c2.476-5.577,5.89-10.53,10.254-14.859
			c4.359-4.323,9.485-7.686,15.379-10.076C667.664,248.182,674.028,246.986,680.868,246.986z"/>
	</g>
</g>
</svg>
